<svg width="220" height="75" viewBox="0 0 220 75" fill="none" xmlns="http://www.w3.org/2000/svg">
<path d="M6.77813 43C5.77813 43 4.92813 42.65 4.22813 41.95C3.52813 41.25 3.17813 40.4 3.17813 39.4V11.55C3.17813 10.5833 3.52813 9.75 4.22813 9.05C4.92813 8.35 5.77813 8 6.77813 8H18.1281C19.1281 8 19.9781 8.35 20.6781 9.05C21.3781 9.75 21.7281 10.5833 21.7281 11.55V19.35L17.0781 18.3V14.4C17.0781 13.9 16.8948 13.4833 16.5281 13.15C16.1948 12.7833 15.7781 12.6 15.2781 12.6H9.62813C9.12813 12.6 8.69479 12.7833 8.32813 13.15C7.99479 13.4833 7.82813 13.9 7.82813 14.4V36.55C7.82813 37.05 7.99479 37.4833 8.32813 37.85C8.69479 38.1833 9.12813 38.35 9.62813 38.35H15.2781C15.7781 38.35 16.1948 38.1833 16.5281 37.85C16.8948 37.4833 17.0781 37.05 17.0781 36.55V31.7H12.4781L13.5281 27.05H21.7281V39.4C21.7281 40.4 21.3781 41.25 20.6781 41.95C19.9781 42.65 19.1281 43 18.1281 43H6.77813ZM25.8574 43V18H36.3074C37.3074 18 38.1574 18.3667 38.8574 19.1C39.5908 19.8 39.9574 20.65 39.9574 21.65V27.1L35.2574 26.05V24.55C35.2574 24.05 35.0741 23.6167 34.7074 23.25C34.3741 22.8833 33.9574 22.7 33.4574 22.7H30.5574V43H25.8574ZM44.107 43C43.107 43 42.2404 42.65 41.507 41.95C40.807 41.25 40.457 40.3833 40.457 39.35V31.8C40.457 30.8 40.807 29.95 41.507 29.25C42.2404 28.5167 43.107 28.15 44.107 28.15H48.007C48.5404 28.15 48.9737 27.9833 49.307 27.65C49.6737 27.2833 49.857 26.85 49.857 26.35V24.5C49.857 24 49.6737 23.5833 49.307 23.25C48.9737 22.8833 48.5404 22.7 48.007 22.7H42.607L43.657 18H50.907C51.907 18 52.757 18.3667 53.457 19.1C54.1904 19.8 54.557 20.65 54.557 21.65V43H44.107ZM46.957 38.3H49.857V32.85H46.957C46.457 32.85 46.0237 33.0333 45.657 33.4C45.3237 33.7333 45.157 34.15 45.157 34.65V36.5C45.157 37 45.3237 37.4333 45.657 37.8C46.0237 38.1333 46.457 38.3 46.957 38.3ZM57.2703 43V18H67.7203C68.687 18 69.537 18.35 70.2703 19.05C71.0036 19.75 71.3703 20.6 71.3703 21.6V43H66.6703V24.5C66.6703 23.9667 66.487 23.5333 66.1203 23.2C65.7536 22.8667 65.337 22.7 64.8703 22.7H61.9703V43H57.2703ZM77.1527 43V8H81.8027V21.3H91.1027V8H95.7027V43H91.1027V25.95H81.8027V43H77.1527ZM104.459 43C103.459 43 102.592 42.65 101.859 41.95C101.159 41.25 100.809 40.3833 100.809 39.35V31.8C100.809 30.8 101.159 29.95 101.859 29.25C102.592 28.5167 103.459 28.15 104.459 28.15H108.359C108.892 28.15 109.325 27.9833 109.659 27.65C110.025 27.2833 110.209 26.85 110.209 26.35V24.5C110.209 24 110.025 23.5833 109.659 23.25C109.325 22.8833 108.892 22.7 108.359 22.7H102.959L104.009 18H111.259C112.259 18 113.109 18.3667 113.809 19.1C114.542 19.8 114.909 20.65 114.909 21.65V43H104.459ZM107.309 38.3H110.209V32.85H107.309C106.809 32.85 106.375 33.0333 106.009 33.4C105.675 33.7333 105.509 34.15 105.509 34.65V36.5C105.509 37 105.675 37.4333 106.009 37.8C106.375 38.1333 106.809 38.3 107.309 38.3ZM117.947 43V18H128.397C129.397 18 130.247 18.3667 130.947 19.1C131.681 19.8 132.047 20.65 132.047 21.65V27.1L127.347 26.05V24.55C127.347 24.05 127.164 23.6167 126.797 23.25C126.464 22.8833 126.047 22.7 125.547 22.7H122.647V43H117.947ZM134.434 43V18H154.284C155.284 18 156.134 18.3667 156.834 19.1C157.534 19.8 157.884 20.65 157.884 21.65V43H153.234V24.5C153.234 24 153.051 23.5833 152.684 23.25C152.317 22.8833 151.884 22.7 151.384 22.7H148.534V43H143.834V24.5C143.834 24 143.651 23.5833 143.284 23.25C142.917 22.8833 142.484 22.7 141.984 22.7H139.134V43H134.434ZM164.624 43C163.591 43 162.724 42.65 162.024 41.95C161.324 41.2167 160.974 40.35 160.974 39.35V21.65C160.974 20.65 161.324 19.8 162.024 19.1C162.724 18.3667 163.591 18 164.624 18H171.424C172.424 18 173.274 18.3667 173.974 19.1C174.674 19.8 175.024 20.65 175.024 21.65V39.35C175.024 40.35 174.674 41.2167 173.974 41.95C173.274 42.65 172.424 43 171.424 43H164.624ZM167.474 38.3H168.524C169.024 38.3 169.458 38.1333 169.824 37.8C170.191 37.4333 170.374 37 170.374 36.5V24.5C170.374 24 170.191 23.5833 169.824 23.25C169.458 22.8833 169.024 22.7 168.524 22.7H167.474C166.974 22.7 166.541 22.8833 166.174 23.25C165.841 23.5833 165.674 24 165.674 24.5V36.5C165.674 37 165.841 37.4333 166.174 37.8C166.541 38.1333 166.974 38.3 167.474 38.3ZM178.266 43V18H188.716C189.683 18 190.533 18.35 191.266 19.05C192 19.75 192.366 20.6 192.366 21.6V43H187.666V24.5C187.666 23.9667 187.483 23.5333 187.116 23.2C186.75 22.8667 186.333 22.7 185.866 22.7H182.966V43H178.266ZM196.072 11.3V6.6L200.772 5.5V10.2L196.072 11.3ZM196.172 43V19.1L200.872 18V43H196.172ZM207.535 43C206.535 43 205.668 42.65 204.935 41.95C204.235 41.25 203.885 40.3833 203.885 39.35V31.8C203.885 30.8 204.235 29.95 204.935 29.25C205.668 28.5167 206.535 28.15 207.535 28.15H211.435C211.968 28.15 212.401 27.9833 212.735 27.65C213.101 27.2833 213.285 26.85 213.285 26.35V24.5C213.285 24 213.101 23.5833 212.735 23.25C212.401 22.8833 211.968 22.7 211.435 22.7H206.035L207.085 18H214.335C215.335 18 216.185 18.3667 216.885 19.1C217.618 19.8 217.985 20.65 217.985 21.65V43H207.535ZM210.385 38.3H213.285V32.85H210.385C209.885 32.85 209.451 33.0333 209.085 33.4C208.751 33.7333 208.585 34.15 208.585 34.65V36.5C208.585 37 208.751 37.4333 209.085 37.8C209.451 38.1333 209.885 38.3 210.385 38.3Z" fill="#363E91"/>
<path d="M164.954 71V69.208L164.874 68.872V65.816C164.874 65.1653 164.682 64.664 164.298 64.312C163.925 63.9493 163.36 63.768 162.602 63.768C162.101 63.768 161.61 63.8533 161.13 64.024C160.65 64.184 160.245 64.4027 159.914 64.68L159.274 63.528C159.712 63.176 160.234 62.9093 160.842 62.728C161.461 62.536 162.106 62.44 162.778 62.44C163.941 62.44 164.837 62.7227 165.466 63.288C166.096 63.8533 166.41 64.7173 166.41 65.88V71H164.954ZM162.17 71.096C161.541 71.096 160.986 70.9893 160.506 70.776C160.037 70.5627 159.674 70.2693 159.418 69.896C159.162 69.512 159.034 69.08 159.034 68.6C159.034 68.1413 159.141 67.7253 159.354 67.352C159.578 66.9787 159.936 66.68 160.426 66.456C160.928 66.232 161.6 66.12 162.442 66.12H165.13V67.224H162.506C161.738 67.224 161.221 67.352 160.954 67.608C160.688 67.864 160.554 68.1733 160.554 68.536C160.554 68.952 160.72 69.288 161.05 69.544C161.381 69.7893 161.84 69.912 162.426 69.912C163.002 69.912 163.504 69.784 163.93 69.528C164.368 69.272 164.682 68.8987 164.874 68.408L165.178 69.464C164.976 69.9653 164.618 70.3653 164.106 70.664C163.594 70.952 162.949 71.096 162.17 71.096ZM172.965 74.2C172.186 74.2 171.429 74.088 170.693 73.864C169.968 73.6507 169.376 73.3413 168.917 72.936L169.653 71.752C170.048 72.0933 170.533 72.36 171.109 72.552C171.685 72.7547 172.288 72.856 172.917 72.856C173.92 72.856 174.656 72.6213 175.125 72.152C175.594 71.6827 175.829 70.968 175.829 70.008V68.216L175.989 66.536L175.909 64.84V62.52H177.365V69.848C177.365 71.3413 176.992 72.44 176.245 73.144C175.498 73.848 174.405 74.2 172.965 74.2ZM172.773 70.648C171.952 70.648 171.216 70.4773 170.565 70.136C169.925 69.784 169.413 69.2987 169.029 68.68C168.656 68.0613 168.469 67.3467 168.469 66.536C168.469 65.7147 168.656 65 169.029 64.392C169.413 63.7733 169.925 63.2933 170.565 62.952C171.216 62.6107 171.952 62.44 172.773 62.44C173.498 62.44 174.16 62.5893 174.757 62.888C175.354 63.176 175.829 63.624 176.181 64.232C176.544 64.84 176.725 65.608 176.725 66.536C176.725 67.4533 176.544 68.216 176.181 68.824C175.829 69.432 175.354 69.8907 174.757 70.2C174.16 70.4987 173.498 70.648 172.773 70.648ZM172.949 69.304C173.514 69.304 174.016 69.1867 174.453 68.952C174.89 68.7173 175.232 68.392 175.477 67.976C175.733 67.56 175.861 67.08 175.861 66.536C175.861 65.992 175.733 65.512 175.477 65.096C175.232 64.68 174.89 64.36 174.453 64.136C174.016 63.9013 173.514 63.784 172.949 63.784C172.384 63.784 171.877 63.9013 171.429 64.136C170.992 64.36 170.645 64.68 170.389 65.096C170.144 65.512 170.021 65.992 170.021 66.536C170.021 67.08 170.144 67.56 170.389 67.976C170.645 68.392 170.992 68.7173 171.429 68.952C171.877 69.1867 172.384 69.304 172.949 69.304ZM184.076 71.096C183.169 71.096 182.369 70.9093 181.676 70.536C180.993 70.1627 180.46 69.6507 180.076 69C179.702 68.3493 179.516 67.6027 179.516 66.76C179.516 65.9173 179.697 65.1707 180.06 64.52C180.433 63.8693 180.94 63.3627 181.58 63C182.23 62.6267 182.961 62.44 183.772 62.44C184.593 62.44 185.318 62.6213 185.948 62.984C186.577 63.3467 187.068 63.8587 187.42 64.52C187.782 65.1707 187.964 65.9333 187.964 66.808C187.964 66.872 187.958 66.9467 187.948 67.032C187.948 67.1173 187.942 67.1973 187.932 67.272H180.716V66.168H187.132L186.508 66.552C186.518 66.008 186.406 65.5227 186.172 65.096C185.937 64.6693 185.612 64.3387 185.196 64.104C184.79 63.8587 184.316 63.736 183.772 63.736C183.238 63.736 182.764 63.8587 182.348 64.104C181.932 64.3387 181.606 64.6747 181.372 65.112C181.137 65.5387 181.02 66.0293 181.02 66.584V66.84C181.02 67.4053 181.148 67.912 181.404 68.36C181.67 68.7973 182.038 69.1387 182.508 69.384C182.977 69.6293 183.516 69.752 184.124 69.752C184.625 69.752 185.078 69.6667 185.484 69.496C185.9 69.3253 186.262 69.0693 186.572 68.728L187.42 69.72C187.036 70.168 186.556 70.5093 185.98 70.744C185.414 70.9787 184.78 71.096 184.076 71.096ZM194.625 62.44C195.318 62.44 195.926 62.5733 196.449 62.84C196.982 63.1067 197.398 63.512 197.697 64.056C197.995 64.6 198.145 65.288 198.145 66.12V71H196.609V66.296C196.609 65.4747 196.406 64.856 196.001 64.44C195.606 64.024 195.046 63.816 194.321 63.816C193.777 63.816 193.302 63.9227 192.897 64.136C192.491 64.3493 192.177 64.664 191.953 65.08C191.739 65.496 191.633 66.0133 191.633 66.632V71H190.097V62.52H191.569V64.808L191.329 64.2C191.606 63.6453 192.033 63.2133 192.609 62.904C193.185 62.5947 193.857 62.44 194.625 62.44ZM204.491 71.096C203.67 71.096 202.934 70.9147 202.283 70.552C201.643 70.1893 201.137 69.6827 200.763 69.032C200.39 68.3813 200.203 67.624 200.203 66.76C200.203 65.896 200.39 65.144 200.763 64.504C201.137 63.8533 201.643 63.3467 202.283 62.984C202.934 62.6213 203.67 62.44 204.491 62.44C205.206 62.44 205.851 62.6 206.427 62.92C207.003 63.24 207.462 63.72 207.803 64.36C208.155 65 208.331 65.8 208.331 66.76C208.331 67.72 208.161 68.52 207.819 69.16C207.489 69.8 207.035 70.2853 206.459 70.616C205.883 70.936 205.227 71.096 204.491 71.096ZM204.619 69.752C205.153 69.752 205.633 69.6293 206.059 69.384C206.497 69.1387 206.838 68.792 207.083 68.344C207.339 67.8853 207.467 67.3573 207.467 66.76C207.467 66.152 207.339 65.6293 207.083 65.192C206.838 64.744 206.497 64.3973 206.059 64.152C205.633 63.9067 205.153 63.784 204.619 63.784C204.075 63.784 203.59 63.9067 203.163 64.152C202.737 64.3973 202.395 64.744 202.139 65.192C201.883 65.6293 201.755 66.152 201.755 66.76C201.755 67.3573 201.883 67.8853 202.139 68.344C202.395 68.792 202.737 69.1387 203.163 69.384C203.59 69.6293 204.075 69.752 204.619 69.752ZM207.515 71V68.712L207.611 66.744L207.451 64.776V59.128H208.987V71H207.515ZM217.158 71V69.208L217.078 68.872V65.816C217.078 65.1653 216.886 64.664 216.502 64.312C216.128 63.9493 215.563 63.768 214.806 63.768C214.304 63.768 213.814 63.8533 213.334 64.024C212.854 64.184 212.448 64.4027 212.118 64.68L211.478 63.528C211.915 63.176 212.438 62.9093 213.046 62.728C213.664 62.536 214.31 62.44 214.982 62.44C216.144 62.44 217.04 62.7227 217.67 63.288C218.299 63.8533 218.614 64.7173 218.614 65.88V71H217.158ZM214.374 71.096C213.744 71.096 213.19 70.9893 212.71 70.776C212.24 70.5627 211.878 70.2693 211.622 69.896C211.366 69.512 211.238 69.08 211.238 68.6C211.238 68.1413 211.344 67.7253 211.558 67.352C211.782 66.9787 212.139 66.68 212.63 66.456C213.131 66.232 213.803 66.12 214.646 66.12H217.334V67.224H214.71C213.942 67.224 213.424 67.352 213.158 67.608C212.891 67.864 212.758 68.1733 212.758 68.536C212.758 68.952 212.923 69.288 213.254 69.544C213.584 69.7893 214.043 69.912 214.63 69.912C215.206 69.912 215.707 69.784 216.134 69.528C216.571 69.272 216.886 68.8987 217.078 68.408L217.382 69.464C217.179 69.9653 216.822 70.3653 216.31 70.664C215.798 70.952 215.152 71.096 214.374 71.096Z" fill="#EB6A3F"/>
</svg>
