<svg width="63" height="52" viewBox="0 0 63 52" fill="none" xmlns="http://www.w3.org/2000/svg">
<path d="M5.63476 32.4931C5.63476 44.6025 22.9965 50.8189 35.1114 50.8189C52.9959 56.7504 67.7414 34.9609 61.5719 19.6055C55.2904 3.97148 43.5203 7.23024 29.9016 10.9684C18.248 14.1672 5.63476 20.3837 5.63476 32.4931Z" fill="#A0212B"/>
<path d="M11.9632 6.86171C12.9008 4.28973 12.4193 1.27165 8.79677 0.760481C6.21812 0.396613 3.05626 2.48818 2.69309 5.06194C2.32991 7.63569 3.85153 10.7979 6.43018 11.1617C9.00883 11.5256 10.9119 9.74544 11.9632 6.86171Z" fill="#A0212B"/>
<path d="M3.69605 15.3633C3.8054 16.1084 3.36324 16.842 2.01126 16.6512C1.04888 16.5154 0.0946152 15.696 0.192609 15.0016C0.290603 14.3071 1.12071 13.6289 2.08309 13.7647C3.04547 13.9005 3.57344 14.5278 3.69605 15.3633Z" fill="#A0212B"/>
<g clip-path="url(#clip0_623_88)">
<path d="M23.8517 23.9219L23.1955 25.0156C23.0978 25.1781 22.9644 25.3163 22.8055 25.4197C22.6465 25.5231 22.4661 25.5889 22.2779 25.6122C22.0897 25.6356 21.8987 25.6158 21.7193 25.5544C21.5399 25.493 21.3768 25.3916 21.2424 25.2578L19.9924 24.0078C19.8571 23.8734 19.7544 23.7098 19.6921 23.5296C19.6298 23.3493 19.6096 23.1572 19.633 22.968C19.6563 22.7787 19.7227 22.5973 19.827 22.4377C19.9312 22.278 20.0707 22.1443 20.2346 22.0469L22.1252 20.9375" stroke="#F9F0EE" stroke-width="2.5125" stroke-miterlimit="10"/>
<path d="M44.1487 23.9219L44.8049 25.0156C44.9026 25.1781 45.036 25.3163 45.195 25.4197C45.3539 25.5231 45.5343 25.5889 45.7225 25.6122C45.9107 25.6356 46.1017 25.6158 46.2811 25.5544C46.4606 25.493 46.6236 25.3916 46.7581 25.2578L48.0081 24.0078C48.1433 23.8734 48.246 23.7098 48.3083 23.5296C48.3706 23.3493 48.3908 23.1572 48.3675 22.968C48.3441 22.7787 48.2777 22.5973 48.1735 22.4377C48.0692 22.278 47.9298 22.1443 47.7659 22.0469L45.8752 20.9375" stroke="#F9F0EE" stroke-width="2.5125" stroke-miterlimit="10"/>
<path d="M34.0002 23.125C35.5862 23.125 37.7659 23.3828 39.844 23.8672L41.6487 24.289C42.1538 24.4082 42.6794 24.4114 43.186 24.2984C43.6925 24.1855 44.1669 23.9593 44.5736 23.6368C44.9802 23.3143 45.3086 22.9039 45.534 22.4364C45.7595 21.969 45.8761 21.4565 45.8752 20.9375C45.8752 19.625 45.1877 18.3906 44.0627 17.9062C41.6877 16.8984 38.3752 16.25 34.0002 16.25C29.6252 16.25 26.3127 16.8984 23.9377 17.9062C22.8127 18.3906 22.1252 19.625 22.1252 20.9375C22.1246 21.4557 22.2412 21.9673 22.4662 22.434C22.6912 22.9008 23.0188 23.3107 23.4245 23.633C23.8302 23.9553 24.3035 24.1818 24.8091 24.2954C25.3147 24.409 25.8394 24.4068 26.344 24.289L28.1487 23.8672C30.2346 23.3828 32.4143 23.125 34.0002 23.125V23.125Z" stroke="#F9F0EE" stroke-width="2.5125" stroke-miterlimit="10"/>
<path d="M36.5002 23.2812V27.8594C36.5004 28.3314 36.3937 28.7973 36.188 29.2222C35.9823 29.6471 35.6831 30.0198 35.3127 30.3125L34.0002 31.3437L32.6877 30.3125C32.3174 30.0198 32.0181 29.6471 31.8125 29.2222C31.6068 28.7973 31.5001 28.3314 31.5002 27.8594V23.2812" stroke="#F9F0EE" stroke-width="2.5125" stroke-miterlimit="10"/>
<path d="M34.0002 45V23.125" stroke="#F9F0EE" stroke-width="2.5125" stroke-miterlimit="10"/>
</g>
<defs>
<clipPath id="clip0_623_88">
<rect width="30" height="30" fill="white" transform="translate(19 15)"/>
</clipPath>
</defs>
</svg>
