<svg width="63" height="52" viewBox="0 0 63 52" fill="none" xmlns="http://www.w3.org/2000/svg">
<path d="M5.63476 32.4931C5.63476 44.6025 22.9965 50.8189 35.1114 50.8189C52.9959 56.7504 67.7414 34.9609 61.5719 19.6055C55.2904 3.97148 43.5203 7.23024 29.9016 10.9684C18.248 14.1672 5.63476 20.3837 5.63476 32.4931Z" fill="#1E7C3E"/>
<path d="M11.9632 6.86171C12.9008 4.28973 12.4193 1.27165 8.79677 0.760481C6.21812 0.396614 3.05626 2.48818 2.69309 5.06194C2.32991 7.63569 3.85153 10.7979 6.43018 11.1617C9.00883 11.5256 10.9119 9.74544 11.9632 6.86171Z" fill="#1E7C3E"/>
<path d="M3.69605 15.3633C3.8054 16.1084 3.36324 16.842 2.01126 16.6512C1.04888 16.5154 0.0946152 15.696 0.192609 15.0016C0.290603 14.3071 1.12071 13.6289 2.08309 13.7647C3.04547 13.9005 3.57344 14.5278 3.69605 15.3633Z" fill="#1E7C3E"/>
<g clip-path="url(#clip0_623_49)">
<path d="M36.875 41.3575C36.875 40.8888 36.6888 40.4388 36.3575 40.1075L24.8925 28.6425C24.5613 28.3112 24.1113 28.125 23.6425 28.125C22.6663 28.125 21.875 28.9162 21.875 29.8925C21.875 30.3612 22.0613 30.8112 22.3925 31.1425L33.8569 42.6069C34.1881 42.9381 34.6381 43.1244 35.1069 43.1244C36.0837 43.125 36.875 42.3338 36.875 41.3575Z" stroke="#F9F0EE" stroke-width="2.5" stroke-miterlimit="10"/>
<path d="M24.8925 33.6425C24.5613 33.3112 24.1113 33.125 23.6425 33.125C22.6663 33.125 21.875 33.9162 21.875 34.8925C21.875 35.3612 22.0613 35.8112 22.3925 36.1425L28.8569 42.6069C29.1881 42.9381 29.6381 43.1244 30.1069 43.1244C31.0838 43.125 31.875 42.3338 31.875 41.3575C31.875 40.8888 31.6888 40.4388 31.3575 40.1075" stroke="#F9F0EE" stroke-width="2.5" stroke-miterlimit="10"/>
<path d="M24.375 38.125L22.5 40L25 42.5L26.875 40.625" stroke="#F9F0EE" stroke-width="2.5" stroke-miterlimit="10"/>
<path d="M33.125 18.6425C33.125 19.1113 33.3112 19.5613 33.6425 19.8925L45.1069 31.3569C45.4381 31.6881 45.8881 31.8744 46.3569 31.8744C47.3338 31.875 48.125 31.0838 48.125 30.1075C48.125 29.6388 47.9388 29.1888 47.6075 28.8575L36.1425 17.3925C35.8112 17.0613 35.3612 16.875 34.8925 16.875C33.9162 16.875 33.125 17.6663 33.125 18.6425V18.6425Z" stroke="#F9F0EE" stroke-width="2.5" stroke-miterlimit="10"/>
<path d="M45.1075 26.3575C45.4388 26.6888 45.8888 26.875 46.3575 26.875C47.3338 26.875 48.125 26.0838 48.125 25.1075C48.125 24.6388 47.9388 24.1888 47.6075 23.8575L41.1425 17.3925C40.8112 17.0613 40.3612 16.875 39.8925 16.875C38.9162 16.875 38.125 17.6663 38.125 18.6425C38.125 19.1113 38.3112 19.5613 38.6425 19.8925" stroke="#F9F0EE" stroke-width="2.5" stroke-miterlimit="10"/>
<path d="M45.625 21.875L47.5 20L45 17.5L43.125 19.375" stroke="#F9F0EE" stroke-width="2.5" stroke-miterlimit="10"/>
<path d="M29.375 33.125L38.125 24.375" stroke="#F9F0EE" stroke-width="2.5" stroke-miterlimit="10"/>
<path d="M31.875 35.625L40.625 26.875" stroke="#F9F0EE" stroke-width="2.5" stroke-miterlimit="10"/>
</g>
<defs>
<clipPath id="clip0_623_49">
<rect width="30" height="30" fill="white" transform="translate(20 15)"/>
</clipPath>
</defs>
</svg>
