<svg width="313" height="192" viewBox="0 0 313 192" fill="none" xmlns="http://www.w3.org/2000/svg">
<g clip-path="url(#clip0_623_1635)">
<path d="M21.7214 177.858C23.1488 178.355 24.6814 178.48 26.1714 178.22C27.6615 177.96 29.0589 177.324 30.2289 176.373C33.2087 173.896 34.144 169.814 34.903 166.034L37.1514 154.855L32.4443 158.066C29.059 160.375 25.5978 162.758 23.2537 166.103C20.9097 169.448 19.8867 174.014 21.7698 177.633" fill="#E6E6E6"/>
<path d="M22.1235 191.393C21.6471 187.955 21.1572 184.473 21.4913 180.998C21.7882 177.912 22.7383 174.898 24.6734 172.427C25.7005 171.117 26.9502 169.995 28.3665 169.111C28.7359 168.881 29.0755 169.461 28.708 169.69C26.2576 171.224 24.3623 173.49 23.2954 176.16C22.117 179.129 21.9278 182.366 22.1325 185.52C22.2553 187.427 22.5155 189.321 22.7779 191.214C22.799 191.3 22.7863 191.391 22.7423 191.467C22.6984 191.544 22.6265 191.601 22.5414 191.627C22.4549 191.65 22.3626 191.638 22.2847 191.595C22.2067 191.551 22.1494 191.478 22.1251 191.393L22.1235 191.393Z" fill="#F2F2F2"/>
<path d="M116.525 117.322C116.179 117.485 115.802 117.573 115.42 117.58L79.9091 118.546C78.4311 118.577 77.0009 118.026 75.9331 117.013C74.8653 116.001 74.2473 114.609 74.2152 113.145C74.1831 111.681 74.7394 110.264 75.7618 109.206C76.7841 108.148 78.1888 107.536 79.6668 107.504L115.177 106.539C115.897 106.524 116.592 106.793 117.112 107.285C117.632 107.778 117.933 108.455 117.949 109.168L118.074 114.834C118.084 115.353 117.944 115.863 117.669 116.304C117.395 116.746 116.997 117.099 116.525 117.322Z" fill="#E7ECEF"/>
<path d="M70.9607 191.465H65.2393C64.5199 191.464 63.8302 191.18 63.3215 190.676C62.8128 190.173 62.5267 189.489 62.5259 188.777V141.538C62.5267 140.825 62.8128 140.142 63.3215 139.638C63.8302 139.134 64.5199 138.85 65.2393 138.85H70.9607C71.6801 138.85 72.3698 139.134 72.8785 139.638C73.3872 140.142 73.6734 140.825 73.6742 141.538V188.777C73.6734 189.489 73.3872 190.173 72.8785 190.676C72.3698 191.18 71.6801 191.464 70.9607 191.465Z" fill="#E7ECEF"/>
<path d="M86.1532 191.465H80.4317C79.7123 191.464 79.0226 191.18 78.5139 190.676C78.0052 190.173 77.7191 189.489 77.7183 188.777V141.538C77.7191 140.825 78.0052 140.142 78.5139 139.638C79.0226 139.134 79.7123 138.85 80.4317 138.85H86.1532C86.8726 138.85 87.5623 139.134 88.071 139.638C88.5797 140.142 88.8658 140.825 88.8667 141.538V188.777C88.8658 189.489 88.5797 190.173 88.071 190.676C87.5623 191.18 86.8726 191.464 86.1532 191.465Z" fill="#E7ECEF"/>
<path d="M76.2544 89.7425C87.1729 89.7425 96.024 80.9741 96.024 70.1579C96.024 59.3416 87.1729 50.5732 76.2544 50.5732C65.336 50.5732 56.4849 59.3416 56.4849 70.1579C56.4849 80.9741 65.336 89.7425 76.2544 89.7425Z" fill="#E7ECEF"/>
<path d="M82.9653 155.601H68.743C65.7875 155.612 62.8815 154.849 60.3192 153.39C57.7568 151.931 55.6291 149.827 54.1513 147.291C52.6736 144.756 51.8983 141.878 51.9038 138.951C51.9094 136.023 52.6957 133.148 54.1831 130.618L74.0726 96.4909C74.2938 96.1115 74.6118 95.7964 74.9949 95.5773C75.3779 95.3583 75.8124 95.2429 76.2547 95.2429C76.697 95.2429 77.1315 95.3583 77.5145 95.5773C77.8976 95.7964 78.2156 96.1115 78.4368 96.4909L97.9258 129.931C99.4419 132.532 100.24 135.484 100.24 138.488C100.24 141.492 99.4418 144.443 97.9256 147.044C96.4095 149.646 94.2287 151.806 91.6026 153.308C88.9765 154.81 85.9976 155.601 82.9653 155.601Z" fill="#363E91"/>
<path d="M80.921 78.3792C82.2025 78.3439 83.7973 78.2998 85.026 77.4107C85.3919 77.1351 85.6925 76.7835 85.9068 76.3807C86.1211 75.9778 86.2438 75.5335 86.2665 75.0787C86.2887 74.7555 86.2352 74.4315 86.1101 74.1322C85.985 73.8329 85.7917 73.5663 85.5454 73.3532C84.9036 72.816 83.9665 72.69 82.9566 72.984L84.003 65.4092L83.2349 65.3049L82.0048 74.2101L82.6462 73.9186C83.3898 73.5807 84.4106 73.4087 85.0449 73.9398C85.2007 74.0786 85.322 74.2511 85.3995 74.444C85.477 74.6368 85.5086 74.8448 85.4918 75.0517C85.473 75.3902 85.3808 75.7207 85.2215 76.0207C85.0622 76.3207 84.8396 76.5833 84.5687 76.7904C83.6125 77.4823 82.3413 77.5716 80.8994 77.6115L80.921 78.3792Z" fill="#363E91"/>
<path d="M91.9768 66.0625H87.8013V66.8305H91.9768V66.0625Z" fill="#363E91"/>
<path d="M78.7971 66.0625H74.6216V66.8305H78.7971V66.0625Z" fill="#363E91"/>
<path d="M71.6046 151.22C71.4403 150.878 71.3517 150.505 71.3446 150.126L70.37 114.947C70.3378 113.483 70.8942 112.066 71.9165 111.009C72.9389 109.951 74.3436 109.339 75.8216 109.307C77.2996 109.275 78.7298 109.826 79.7976 110.839C80.8655 111.852 81.4834 113.243 81.5155 114.707L82.49 149.886C82.5049 150.598 82.2338 151.287 81.7364 151.802C81.2389 152.317 80.5556 152.615 79.8364 152.632L74.1164 152.755C73.5931 152.766 73.0777 152.626 72.6322 152.354C72.1866 152.082 71.8299 151.688 71.6046 151.22Z" fill="#E7ECEF"/>
<path d="M74.4203 55.6808C76.8223 58.7925 80.6353 60.88 84.6654 60.3858C88.5031 59.9151 91.6692 57.2652 92.4635 53.4714C92.8103 51.6778 92.7167 49.8278 92.1908 48.0775C91.6648 46.3271 90.7218 44.7277 89.4412 43.414C86.7248 40.5837 82.8373 39.0612 78.9893 38.5391C71.6999 37.5501 64.2136 40.0938 58.7021 44.8378C55.9343 47.1963 53.7251 50.1299 52.2314 53.4301C50.7927 56.7059 50.1074 60.2577 50.2254 63.8282C50.4372 70.8845 53.5572 77.9272 58.9406 82.6068C59.6092 83.1861 60.309 83.7291 61.037 84.2333C61.6509 84.66 62.2327 83.6617 61.6239 83.2386C56.1109 79.4073 52.5944 73.1733 51.6293 66.623C51.1238 63.3226 51.3492 59.9528 52.2899 56.7473C53.2305 53.5419 54.8639 50.5775 57.0767 48.06C61.5284 43.0455 68.0557 39.7863 74.8161 39.4943C81.6188 39.2004 90.1198 42.209 91.3928 49.7107C91.9633 53.073 90.6946 56.6072 87.5844 58.2906C84.2544 60.0928 80.1711 59.3512 77.3094 57.0236C76.6087 56.4559 75.9762 55.8102 75.4245 55.0993C74.976 54.5182 73.9655 55.0914 74.4203 55.6808H74.4203Z" fill="#363E91"/>
<path d="M274.469 4.54527L106.737 28.5488L118.234 107.396L285.967 83.3926L274.469 4.54527Z" fill="#F1F1F1"/>
<path d="M270.659 11.993L112.519 34.6238L122.112 100.409L280.252 77.7778L270.659 11.993Z" fill="white"/>
<path d="M273.734 -0.000137965L106.001 24.0034L107.03 31.0625L274.763 7.05898L273.734 -0.000137965Z" fill="#E5E5E5"/>
<path d="M111.901 28.7186C112.638 28.7186 113.236 28.1268 113.236 27.3967C113.236 26.6666 112.638 26.0747 111.901 26.0747C111.164 26.0747 110.567 26.6666 110.567 27.3967C110.567 28.1268 111.164 28.7186 111.901 28.7186Z" fill="white"/>
<path d="M116.915 28.0013C117.652 28.0013 118.249 27.4095 118.249 26.6794C118.249 25.9493 117.652 25.3574 116.915 25.3574C116.178 25.3574 115.58 25.9493 115.58 26.6794C115.58 27.4095 116.178 28.0013 116.915 28.0013Z" fill="white"/>
<path d="M121.928 27.2838C122.665 27.2838 123.262 26.692 123.262 25.9619C123.262 25.2318 122.665 24.6399 121.928 24.6399C121.191 24.6399 120.593 25.2318 120.593 25.9619C120.593 26.692 121.191 27.2838 121.928 27.2838Z" fill="white"/>
<path d="M313 38.4714H143.526V118.137H313V38.4714Z" fill="#E6E6E6"/>
<path d="M308.154 45.303H148.373V111.771H308.154V45.303Z" fill="white"/>
<path d="M312.928 33.8687H143.454V41.001H312.928V33.8687Z" fill="#CBCBCB"/>
<path d="M148.804 39.3847C149.541 39.3847 150.139 38.7928 150.139 38.0627C150.139 37.3326 149.541 36.7407 148.804 36.7407C148.067 36.7407 147.47 37.3326 147.47 38.0627C147.47 38.7928 148.067 39.3847 148.804 39.3847Z" fill="white"/>
<path d="M153.87 39.3847C154.607 39.3847 155.204 38.7928 155.204 38.0627C155.204 37.3326 154.607 36.7407 153.87 36.7407C153.133 36.7407 152.535 37.3326 152.535 38.0627C152.535 38.7928 153.133 39.3847 153.87 39.3847Z" fill="white"/>
<path d="M158.935 39.3847C159.672 39.3847 160.269 38.7928 160.269 38.0627C160.269 37.3326 159.672 36.7407 158.935 36.7407C158.198 36.7407 157.601 37.3326 157.601 38.0627C157.601 38.7928 158.198 39.3847 158.935 39.3847Z" fill="white"/>
<path d="M262.947 55.4084H240.443V57.084H262.947V55.4084Z" fill="#E6E6E6"/>
<path d="M275.193 60.3274H240.443V62.003H275.193V60.3274Z" fill="#E6E6E6"/>
<path d="M269.125 65.0122H240.805V66.6878H269.125V65.0122Z" fill="#E6E6E6"/>
<path d="M256.976 70.1521H240.443V71.8277H256.976V70.1521Z" fill="#E6E6E6"/>
<path d="M265.396 75.1729H240.443V76.8484H265.396V75.1729Z" fill="#E6E6E6"/>
<path d="M232.943 54.8813H230.187V57.6111H232.943V54.8813Z" fill="#E6E6E6"/>
<path d="M232.943 59.8003H230.187V62.53H232.943V59.8003Z" fill="#E6E6E6"/>
<path d="M232.943 64.4851H230.187V67.2148H232.943V64.4851Z" fill="#E6E6E6"/>
<path d="M232.943 69.625H230.187V72.3547H232.943V69.625Z" fill="#E6E6E6"/>
<path d="M232.943 74.646H230.187V77.3757H232.943V74.646Z" fill="#E6E6E6"/>
<path d="M262.947 80.2251H240.443V81.9007H262.947V80.2251Z" fill="#E6E6E6"/>
<path d="M275.193 85.144H240.443V86.8196H275.193V85.144Z" fill="#E6E6E6"/>
<path d="M269.125 89.8286H240.805V91.5042H269.125V89.8286Z" fill="#E6E6E6"/>
<path d="M256.976 94.9688H240.443V96.6443H256.976V94.9688Z" fill="#E6E6E6"/>
<path d="M265.396 99.9895H240.443V101.665H265.396V99.9895Z" fill="#E6E6E6"/>
<path d="M232.943 79.698H230.187V82.4277H232.943V79.698Z" fill="#E6E6E6"/>
<path d="M232.943 84.6169H230.187V87.3467H232.943V84.6169Z" fill="#E6E6E6"/>
<path d="M232.943 89.3015H230.187V92.0312H232.943V89.3015Z" fill="#E6E6E6"/>
<path d="M232.943 94.4417H230.187V97.1714H232.943V94.4417Z" fill="#E6E6E6"/>
<path d="M232.943 99.4624H230.187V102.192H232.943V99.4624Z" fill="#E6E6E6"/>
<path d="M191.758 93.3684H169.255V95.044H191.758V93.3684Z" fill="#E6E6E6"/>
<path d="M194.564 97.7222H166.244V99.3978H194.564V97.7222Z" fill="#E6E6E6"/>
<path d="M195.133 72.2319C195.132 74.7502 194.471 77.2253 193.216 79.4153C191.961 81.6053 190.155 83.4355 187.972 84.727C185.79 86.0185 183.307 86.7273 180.765 86.7841C178.224 86.8409 175.711 86.2437 173.472 85.051L173.469 85.0482C171.182 83.8277 169.263 82.0284 167.906 79.8337C166.55 77.639 165.805 75.1273 165.748 72.5545C165.69 69.9818 166.322 67.4399 167.58 65.188C168.837 62.936 170.674 61.0545 172.904 59.735C175.135 58.4156 177.678 57.7054 180.276 57.6769C182.873 57.6484 185.432 58.3025 187.691 59.5727C189.95 60.8428 191.829 62.6836 193.136 64.9074C194.444 67.1312 195.132 69.6585 195.133 72.2319V72.2319Z" fill="#E6E6E6"/>
<path d="M180.514 71.5252C182.72 71.5252 184.508 69.7536 184.508 67.5683C184.508 65.3829 182.72 63.6113 180.514 63.6113C178.308 63.6113 176.52 65.3829 176.52 67.5683C176.52 69.7536 178.308 71.5252 180.514 71.5252Z" fill="white"/>
<path d="M187.334 79.7013C182.869 81.254 178 81.2353 173.547 79.6484L173.544 79.6464L176.52 73.8274H184.508L187.334 79.7013Z" fill="white"/>
<path d="M136.29 108.363C129.328 108.363 123.664 102.402 123.664 95.0754C123.664 87.749 129.328 81.7886 136.29 81.7886C143.252 81.7886 148.916 87.749 148.916 95.0754C148.916 102.402 143.252 108.363 136.29 108.363ZM136.29 85.1458C131.196 85.1458 127.053 89.6002 127.053 95.0754C127.053 100.551 131.196 105.005 136.29 105.005C141.383 105.005 145.527 100.551 145.527 95.0754C145.527 89.6002 141.383 85.1458 136.29 85.1458Z" fill="#2F9251"/>
<path d="M148.246 131.518H124.333C122.224 131.516 120.203 130.685 118.712 129.208C117.221 127.731 116.382 125.728 116.379 123.639V100.402C116.381 98.9721 116.955 97.601 117.976 96.5896C118.997 95.5783 120.381 95.0094 121.825 95.0078H150.755C152.198 95.0094 153.582 95.5783 154.603 96.5896C155.624 97.601 156.198 98.9721 156.2 100.402V123.639C156.197 125.728 155.359 127.731 153.868 129.208C152.377 130.685 150.355 131.516 148.246 131.518Z" fill="#2F9251"/>
<path d="M140.95 108.227C140.95 107.406 140.73 106.6 140.312 105.892C139.893 105.184 139.292 104.599 138.57 104.197C137.847 103.796 137.03 103.592 136.202 103.608C135.373 103.624 134.564 103.857 133.858 104.286C133.151 104.714 132.573 105.321 132.182 106.045C131.791 106.768 131.601 107.582 131.633 108.402C131.665 109.222 131.917 110.018 132.364 110.71C132.81 111.401 133.434 111.962 134.172 112.335V119.558H138.408V112.335C139.173 111.949 139.815 111.361 140.263 110.636C140.712 109.911 140.949 109.077 140.95 108.227Z" fill="white"/>
<path d="M148.078 192H0.387639C0.284831 192 0.186233 191.959 0.113536 191.887C0.0408401 191.815 0 191.718 0 191.616C0 191.514 0.0408401 191.416 0.113536 191.344C0.186233 191.272 0.284831 191.232 0.387639 191.232H148.078C148.181 191.232 148.279 191.272 148.352 191.344C148.425 191.416 148.466 191.514 148.466 191.616C148.466 191.718 148.425 191.815 148.352 191.887C148.279 191.959 148.181 192 148.078 192Z" fill="#F9F0EE"/>
</g>
<defs>
<clipPath id="clip0_623_1635">
<rect width="313" height="192" fill="white"/>
</clipPath>
</defs>
</svg>
