<svg width="63" height="52" viewBox="0 0 63 52" fill="none" xmlns="http://www.w3.org/2000/svg">
<path d="M5.63476 32.4931C5.63476 44.6025 22.9965 50.8189 35.1114 50.8189C52.9959 56.7504 67.7414 34.9609 61.5719 19.6055C55.2904 3.97152 43.5203 7.23029 29.9016 10.9684C18.248 14.1673 5.63476 20.3838 5.63476 32.4931Z" fill="#363E91"/>
<path d="M11.9632 6.86178C12.9008 4.28981 12.4193 1.27173 8.79677 0.760557C6.21812 0.39669 3.05626 2.48826 2.69309 5.06201C2.32991 7.63577 3.85153 10.7979 6.43018 11.1618C9.00883 11.5257 10.9119 9.74552 11.9632 6.86178Z" fill="#363E91"/>
<path d="M3.69605 15.3633C3.8054 16.1084 3.36324 16.842 2.01126 16.6513C1.04888 16.5155 0.0946152 15.6961 0.192609 15.0016C0.290603 14.3071 1.12071 13.629 2.08309 13.7648C3.04547 13.9006 3.57344 14.5279 3.69605 15.3633Z" fill="#363E91"/>
<g clip-path="url(#clip0_623_27)">
<path d="M49.1189 40.8898C46.8569 42.7945 43.8549 43.9351 40.6669 43.9351C38.4469 43.9351 36.3569 43.3785 34.5289 42.3978L32.8075 41.4738C30.9789 40.4918 28.8875 39.9351 26.6669 39.9351C23.7842 39.9351 21.0122 40.6858 18.8562 42.2738" stroke="#F9F0EE" stroke-width="2.5" stroke-miterlimit="10"/>
<path d="M29.3335 40.2091V18.6018C29.3335 17.4971 30.2288 16.6018 31.3335 16.6018C32.4382 16.6018 33.3335 17.4971 33.3335 18.6018V19.9351" stroke="#F9F0EE" stroke-width="2.5" stroke-miterlimit="10"/>
<path d="M38 43.6611V18.6018C38 17.4971 38.8953 16.6018 40 16.6018C41.1047 16.6018 42 17.4971 42 18.6018V19.9351" stroke="#F9F0EE" stroke-width="2.5" stroke-miterlimit="10"/>
<path d="M18.6667 24.6018H49.3334" stroke="#F9F0EE" stroke-width="2.5" stroke-miterlimit="10"/>
<path d="M29.3335 29.9351H38.0002" stroke="#F9F0EE" stroke-width="2.5" stroke-miterlimit="10"/>
<path d="M29.3335 35.2684H38.0002" stroke="#F9F0EE" stroke-width="2.5" stroke-miterlimit="10"/>
</g>
<defs>
<clipPath id="clip0_623_27">
<rect width="32" height="32" fill="white" transform="translate(18 13.9351)"/>
</clipPath>
</defs>
</svg>
